<svg xmlns="http://www.w3.org/2000/svg" viewBox="0 0 32 32">
  <circle cx="16" cy="16" r="15" fill="#ffffff" stroke="#18181b" stroke-width="1.4"/>
  <path d="M7 8.5 C 11 12, 11 20, 7 23.5" fill="none" stroke="#dc2626" stroke-width="1.3"/>
  <path d="M25 8.5 C 21 12, 21 20, 25 23.5" fill="none" stroke="#dc2626" stroke-width="1.3"/>
  <path d="M8.4 9.2 L 9.6 8" stroke="#dc2626" stroke-width="1"/>
  <path d="M7.6 11.8 L 8.9 10.7" stroke="#dc2626" stroke-width="1"/>
  <path d="M7.1 14.6 L 8.4 13.6" stroke="#dc2626" stroke-width="1"/>
  <path d="M7.1 17.4 L 8.4 18.4" stroke="#dc2626" stroke-width="1"/>
  <path d="M7.6 20.2 L 8.9 21.3" stroke="#dc2626" stroke-width="1"/>
  <path d="M8.4 22.8 L 9.6 24" stroke="#dc2626" stroke-width="1"/>
  <path d="M23.6 9.2 L 22.4 8" stroke="#dc2626" stroke-width="1"/>
  <path d="M24.4 11.8 L 23.1 10.7" stroke="#dc2626" stroke-width="1"/>
  <path d="M24.9 14.6 L 23.6 13.6" stroke="#dc2626" stroke-width="1"/>
  <path d="M24.9 17.4 L 23.6 18.4" stroke="#dc2626" stroke-width="1"/>
  <path d="M24.4 20.2 L 23.1 21.3" stroke="#dc2626" stroke-width="1"/>
  <path d="M23.6 22.8 L 22.4 24" stroke="#dc2626" stroke-width="1"/>
</svg>
